<?xml version="1.0" standalone="no"?>
<!DOCTYPE svg PUBLIC "-//W3C//DTD SVG 1.1//EN" "http://www.w3.org/Graphics/SVG/1.1/DTD/svg11.dtd" >
<svg xmlns="http://www.w3.org/2000/svg" xmlns:xlink="http://www.w3.org/1999/xlink" version="1.1" viewBox="-10 0 266 256">
   <path fill="currentColor"
d="M113 -4q28 6 27 16q0 4 -4 4q-5 -6 -40 7q-5 1 -1 -2q29 -19 17 -22q-1 -1 -1 -2q1 -2 2 -1zM164 19q3 -5 8 -3q3 1 7 3q6 1 10 3q0 3 -3 4q-12 -1 -34 7q-20 7 -30 15q6 4 14 7q3 0 1 7q-1 1 -1 6q3 -1 8 -2q16 -4 24 -5q7 -3 9 -1q4 3 9 7q6 5 9 8q1 2 -1 5
q-10 -1 -12 5q-4 4 -6 7q1 0 3 -1q20 -3 23 -3q4 -5 4 -4q1 0 3 -1h3q8 -3 20 2q2 1 0 3h-4q-4 1 -6 1q-8 0 -17 4q-3 1 -9 2q-9 3 -14 4q-4 1 0 -1l6 -3q1 -1 2 -1q-2 0 -6 1q-6 1 -11 2q-17 19 -29 25q10 -1 17 -5q2 -4 6 -2q21 0 22 7q0 1 -3 2q-1 0 -5 -1q-3 -1 -5 -1
q-4 -1 -8 0q-2 1 -4 1q-15 3 -29 7q-2 16 -6 13h-3q-1 0 0 -2q2 -2 3 -7v-3q-31 10 -39 11q-1 0 -1 -1t1 -2q4 -1 11 -4q14 -5 28 -9v-21l-24 6t-25 7q-17 81 -40 121q-1 2 -2 0q0 -1 1 -3q24 -48 35 -116q-18 5 -23 3q-1 -1 -1 -2l1 -1q5 -1 13 -3q6 -2 11 -3q0 -3 1 -8
q1 -7 2 -12q2 -5 2 -12q1 -13 9 -19q9 -7 32 -22q3 -3 -1 -1q-14 3 -41 10q-8 5 -24 -2q-2 -2 1 -1q12 -1 29 -5q55 -11 70 -16q8 -2 9 -7zM120 49q-18 10 -30 21q-4 2 -2 13q1 5 -1 5t-2 4l-3 12q-1 5 -2 8q9 -2 25 -6q18 -4 24 -6q-2 -16 -2 -25q-6 2 -14 4q-4 2 -6 2
q-3 3 -8 1q-2 -1 1 -2q4 -2 13 -5q10 -4 13 -5q0 -19 -6 -21zM162 98q-15 3 -26 6v18q10 -3 26 -24zM135 73q0 13 1 25q5 -1 12 -2q12 -2 17 -3q9 -11 13 -21q1 -7 -5 -8q-8 -1 -38 9zM165 162q3 -5 6 -3h1q16 5 19 11q4 3 -7 5q-4 1 -6 3q-3 6 -17 18q16 1 17 4q0 4 -4 6
q-37 -6 -41 -2q-1 1 -1 2l1 1q4 2 5 3q0 2 -4 5q-4 -1 -24 -12q-4 -3 -2 -5q5 -4 -4 -19q-2 -4 0 -2q10 11 12 17q5 10 14 7q18 -2 23 -7q16 -15 17 -25q0 -5 -4 -3q-11 1 -24 5q2 0 -2 1q-2 1 -5 2q-6 2 -15 3q-4 0 0 -2q10 -6 45 -13z" />
</svg>
