<?xml version="1.0" standalone="no"?>
<!DOCTYPE svg PUBLIC "-//W3C//DTD SVG 1.1//EN" "http://www.w3.org/Graphics/SVG/1.1/DTD/svg11.dtd" >
<svg xmlns="http://www.w3.org/2000/svg" xmlns:xlink="http://www.w3.org/1999/xlink" version="1.1" viewBox="-10 0 268 256">
   <path fill="currentColor"
d="M180 158q-2 -2 -1 -3q1 0 4 1q7 4 14 11q1 2 1 4q-7 31 -22 44q-2 2 -3 2q-1 -1 0 -3q8 -8 12 -29q-53 -2 -113 23q-4 2 -6 0q-1 -3 0 -9q1 -3 3 -2q8 2 8 -4q1 -10 -3 -24q0 -2 1 -2q0 -1 2 1q10 9 10 26q20 -6 38 -10q2 -21 1 -35q1 -9 -6 -13q-3 0 -6 -1q-10 2 -29 6
q-39 9 -54 13q-11 4 -21 0q-4 -1 0 -2q22 -4 61 -11q28 -5 42 -8q-2 -1 -5 -3q-7 -4 -10 -6q-3 -4 2 -9q3 -3 2 -14q-3 -26 -6 -40q-1 -5 -5 -3q-6 0 -12 2q-4 2 0 -6q1 -3 2 -3q0 -1 2 1h1q4 1 6 0q24 -13 50 -36q6 -4 0 -9q-3 -3 2 -2q6 3 15 14q2 2 1 4q-2 3 -4 2
q-7 -3 -15 2q-17 11 -41 25q5 1 6 1q4 2 1 5q-3 2 -2 9q0 6 2 18q17 -3 33 -11q11 -6 24 -8q9 -2 12 -9q1 -5 6 -2q9 2 16 7q2 1 2 3q-1 2 -4 2q-12 -2 -34 8q-4 1 -5 1q0 -1 3 -4q4 -4 -1 -1q-24 9 -37 17q-4 3 -15 -2q4 39 10 40q2 0 2 6q1 0 3 -1q2 0 3 -1q12 -6 21 -26
q5 -9 -1 -14q-2 -1 -2 -2q1 -2 2 -1q1 0 3 1q8 3 12 6q5 2 0 6q-2 2 -5 6q-1 2 -2 3q-5 8 -14 18q25 -5 67 -7q-1 -5 5 -8q5 -4 9 1t13 8q1 1 3 2q9 3 13 8q2 3 -1 6q-2 2 -5 0q-21 -15 -39 -14q-24 0 -68 8q-6 3 -10 4q13 5 11 13q0 7 -1 23v11q21 -2 51 -2v-2
q2 -11 -5 -20z" />
</svg>
